<?xml version="1.0" encoding="UTF-8" ?>
<svg version="1.1" width="62" height="52" xmlns="http://www.w3.org/2000/svg" shape-rendering="crispEdges">
<rect x="22" y="0" width="2" height="2" fill="#1E125F" />
<rect x="24" y="0" width="2" height="2" fill="#1E125F" />
<rect x="26" y="0" width="2" height="2" fill="#1E125F" />
<rect x="28" y="0" width="2" height="2" fill="#1E125F" />
<rect x="30" y="0" width="2" height="2" fill="#1E125F" />
<rect x="32" y="0" width="2" height="2" fill="#1E125F" />
<rect x="34" y="0" width="2" height="2" fill="#1E125F" />
<rect x="36" y="0" width="2" height="2" fill="#1E125F" />
<rect x="38" y="0" width="2" height="2" fill="#1E125F" />
<rect x="18" y="2" width="2" height="2" fill="#1E125F" />
<rect x="20" y="2" width="2" height="2" fill="#1E125F" />
<rect x="22" y="2" width="2" height="2" fill="#FFB3B7" />
<rect x="24" y="2" width="2" height="2" fill="#FFB3B7" />
<rect x="26" y="2" width="2" height="2" fill="#FFB3B7" />
<rect x="28" y="2" width="2" height="2" fill="#FF1A51" />
<rect x="30" y="2" width="2" height="2" fill="#FF1A51" />
<rect x="32" y="2" width="2" height="2" fill="#FF1A51" />
<rect x="34" y="2" width="2" height="2" fill="#B327A2" />
<rect x="36" y="2" width="2" height="2" fill="#B327A2" />
<rect x="38" y="2" width="2" height="2" fill="#5F229A" />
<rect x="40" y="2" width="2" height="2" fill="#1E125F" />
<rect x="14" y="4" width="2" height="2" fill="#5F229A" />
<rect x="16" y="4" width="2" height="2" fill="#1E125F" />
<rect x="18" y="4" width="2" height="2" fill="#FFB3B7" />
<rect x="20" y="4" width="2" height="2" fill="#FFB3B7" />
<rect x="22" y="4" width="2" height="2" fill="#FFB3B7" />
<rect x="24" y="4" width="2" height="2" fill="#FF1A51" />
<rect x="26" y="4" width="2" height="2" fill="#FF1A51" />
<rect x="28" y="4" width="2" height="2" fill="#FF1A51" />
<rect x="30" y="4" width="2" height="2" fill="#B327A2" />
<rect x="32" y="4" width="2" height="2" fill="#B327A2" />
<rect x="34" y="4" width="2" height="2" fill="#B327A2" />
<rect x="36" y="4" width="2" height="2" fill="#B327A2" />
<rect x="38" y="4" width="2" height="2" fill="#B327A2" />
<rect x="40" y="4" width="2" height="2" fill="#B327A2" />
<rect x="42" y="4" width="2" height="2" fill="#1E125F" />
<rect x="44" y="4" width="2" height="2" fill="#1E125F" />
<rect x="10" y="6" width="2" height="2" fill="#5F229A" />
<rect x="12" y="6" width="2" height="2" fill="#5F229A" />
<rect x="14" y="6" width="2" height="2" fill="#1E125F" />
<rect x="16" y="6" width="2" height="2" fill="#FF1A51" />
<rect x="18" y="6" width="2" height="2" fill="#FFB3B7" />
<rect x="20" y="6" width="2" height="2" fill="#FFB3B7" />
<rect x="22" y="6" width="2" height="2" fill="#FF1A51" />
<rect x="24" y="6" width="2" height="2" fill="#FF1A51" />
<rect x="26" y="6" width="2" height="2" fill="#FF1A51" />
<rect x="28" y="6" width="2" height="2" fill="#B327A2" />
<rect x="30" y="6" width="2" height="2" fill="#B327A2" />
<rect x="32" y="6" width="2" height="2" fill="#B327A2" />
<rect x="34" y="6" width="2" height="2" fill="#B327A2" />
<rect x="36" y="6" width="2" height="2" fill="#B327A2" />
<rect x="38" y="6" width="2" height="2" fill="#B327A2" />
<rect x="40" y="6" width="2" height="2" fill="#B327A2" />
<rect x="42" y="6" width="2" height="2" fill="#B327A2" />
<rect x="44" y="6" width="2" height="2" fill="#B327A2" />
<rect x="46" y="6" width="2" height="2" fill="#1E125F" />
<rect x="8" y="8" width="2" height="2" fill="#5F229A" />
<rect x="10" y="8" width="2" height="2" fill="#FFB3B7" />
<rect x="12" y="8" width="2" height="2" fill="#FF1A51" />
<rect x="14" y="8" width="2" height="2" fill="#FF1A51" />
<rect x="16" y="8" width="2" height="2" fill="#FF1A51" />
<rect x="18" y="8" width="2" height="2" fill="#FF1A51" />
<rect x="20" y="8" width="2" height="2" fill="#FF1A51" />
<rect x="22" y="8" width="2" height="2" fill="#FF1A51" />
<rect x="24" y="8" width="2" height="2" fill="#FF1A51" />
<rect x="26" y="8" width="2" height="2" fill="#B327A2" />
<rect x="28" y="8" width="2" height="2" fill="#B327A2" />
<rect x="30" y="8" width="2" height="2" fill="#B327A2" />
<rect x="32" y="8" width="2" height="2" fill="#B327A2" />
<rect x="34" y="8" width="2" height="2" fill="#B327A2" />
<rect x="36" y="8" width="2" height="2" fill="#B327A2" />
<rect x="38" y="8" width="2" height="2" fill="#B327A2" />
<rect x="40" y="8" width="2" height="2" fill="#B327A2" />
<rect x="42" y="8" width="2" height="2" fill="#B327A2" />
<rect x="44" y="8" width="2" height="2" fill="#B327A2" />
<rect x="46" y="8" width="2" height="2" fill="#5F229A" />
<rect x="48" y="8" width="2" height="2" fill="#1E125F" />
<rect x="6" y="10" width="2" height="2" fill="#5F229A" />
<rect x="8" y="10" width="2" height="2" fill="#FFB3B7" />
<rect x="10" y="10" width="2" height="2" fill="#FFB3B7" />
<rect x="12" y="10" width="2" height="2" fill="#FF1A51" />
<rect x="14" y="10" width="2" height="2" fill="#FF1A51" />
<rect x="16" y="10" width="2" height="2" fill="#FF1A51" />
<rect x="18" y="10" width="2" height="2" fill="#FF1A51" />
<rect x="20" y="10" width="2" height="2" fill="#FF1A51" />
<rect x="22" y="10" width="2" height="2" fill="#FF1A51" />
<rect x="24" y="10" width="2" height="2" fill="#B327A2" />
<rect x="26" y="10" width="2" height="2" fill="#B327A2" />
<rect x="28" y="10" width="2" height="2" fill="#B327A2" />
<rect x="30" y="10" width="2" height="2" fill="#B327A2" />
<rect x="32" y="10" width="2" height="2" fill="#B327A2" />
<rect x="34" y="10" width="2" height="2" fill="#B327A2" />
<rect x="36" y="10" width="2" height="2" fill="#B327A2" />
<rect x="38" y="10" width="2" height="2" fill="#B327A2" />
<rect x="40" y="10" width="2" height="2" fill="#B327A2" />
<rect x="42" y="10" width="2" height="2" fill="#B327A2" />
<rect x="44" y="10" width="2" height="2" fill="#5F229A" />
<rect x="46" y="10" width="2" height="2" fill="#5F229A" />
<rect x="48" y="10" width="2" height="2" fill="#1E125F" />
<rect x="6" y="12" width="2" height="2" fill="#5F229A" />
<rect x="8" y="12" width="2" height="2" fill="#FFB3B7" />
<rect x="10" y="12" width="2" height="2" fill="#FF1A51" />
<rect x="12" y="12" width="2" height="2" fill="#FF1A51" />
<rect x="14" y="12" width="2" height="2" fill="#FF1A51" />
<rect x="16" y="12" width="2" height="2" fill="#FF1A51" />
<rect x="18" y="12" width="2" height="2" fill="#FF1A51" />
<rect x="20" y="12" width="2" height="2" fill="#FF1A51" />
<rect x="22" y="12" width="2" height="2" fill="#FF1A51" />
<rect x="24" y="12" width="2" height="2" fill="#B327A2" />
<rect x="26" y="12" width="2" height="2" fill="#B327A2" />
<rect x="28" y="12" width="2" height="2" fill="#B327A2" />
<rect x="30" y="12" width="2" height="2" fill="#B327A2" />
<rect x="32" y="12" width="2" height="2" fill="#B327A2" />
<rect x="34" y="12" width="2" height="2" fill="#B327A2" />
<rect x="36" y="12" width="2" height="2" fill="#B327A2" />
<rect x="38" y="12" width="2" height="2" fill="#B327A2" />
<rect x="40" y="12" width="2" height="2" fill="#B327A2" />
<rect x="42" y="12" width="2" height="2" fill="#5F229A" />
<rect x="44" y="12" width="2" height="2" fill="#5F229A" />
<rect x="46" y="12" width="2" height="2" fill="#5F229A" />
<rect x="48" y="12" width="2" height="2" fill="#5F229A" />
<rect x="50" y="12" width="2" height="2" fill="#1E125F" />
<rect x="54" y="12" width="2" height="2" fill="#1E125F" />
<rect x="56" y="12" width="2" height="2" fill="#1E125F" />
<rect x="58" y="12" width="2" height="2" fill="#1E125F" />
<rect x="60" y="12" width="2" height="2" fill="#1E125F" />
<rect x="6" y="14" width="2" height="2" fill="#5F229A" />
<rect x="8" y="14" width="2" height="2" fill="#FF1A51" />
<rect x="10" y="14" width="2" height="2" fill="#FF1A51" />
<rect x="12" y="14" width="2" height="2" fill="#FF1A51" />
<rect x="14" y="14" width="2" height="2" fill="#FF1A51" />
<rect x="16" y="14" width="2" height="2" fill="#FF1A51" />
<rect x="18" y="14" width="2" height="2" fill="#FF1A51" />
<rect x="20" y="14" width="2" height="2" fill="#FF1A51" />
<rect x="22" y="14" width="2" height="2" fill="#B327A2" />
<rect x="24" y="14" width="2" height="2" fill="#B327A2" />
<rect x="26" y="14" width="2" height="2" fill="#B327A2" />
<rect x="28" y="14" width="2" height="2" fill="#B327A2" />
<rect x="30" y="14" width="2" height="2" fill="#B327A2" />
<rect x="32" y="14" width="2" height="2" fill="#B327A2" />
<rect x="34" y="14" width="2" height="2" fill="#B327A2" />
<rect x="36" y="14" width="2" height="2" fill="#B327A2" />
<rect x="38" y="14" width="2" height="2" fill="#B327A2" />
<rect x="40" y="14" width="2" height="2" fill="#5F229A" />
<rect x="42" y="14" width="2" height="2" fill="#5F229A" />
<rect x="44" y="14" width="2" height="2" fill="#5F229A" />
<rect x="46" y="14" width="2" height="2" fill="#5F229A" />
<rect x="48" y="14" width="2" height="2" fill="#5F229A" />
<rect x="50" y="14" width="2" height="2" fill="#1E125F" />
<rect x="52" y="14" width="2" height="2" fill="#1E125F" />
<rect x="54" y="14" width="2" height="2" fill="#1E125F" />
<rect x="56" y="14" width="2" height="2" fill="#B327A2" />
<rect x="58" y="14" width="2" height="2" fill="#A349A4" />
<rect x="60" y="14" width="2" height="2" fill="#1E125F" />
<rect x="6" y="16" width="2" height="2" fill="#5F229A" />
<rect x="8" y="16" width="2" height="2" fill="#FF1A51" />
<rect x="10" y="16" width="2" height="2" fill="#FF1A51" />
<rect x="12" y="16" width="2" height="2" fill="#FF1A51" />
<rect x="14" y="16" width="2" height="2" fill="#FF1A51" />
<rect x="16" y="16" width="2" height="2" fill="#FF1A51" />
<rect x="18" y="16" width="2" height="2" fill="#FF1A51" />
<rect x="20" y="16" width="2" height="2" fill="#FF1A51" />
<rect x="22" y="16" width="2" height="2" fill="#B327A2" />
<rect x="24" y="16" width="2" height="2" fill="#B327A2" />
<rect x="26" y="16" width="2" height="2" fill="#B327A2" />
<rect x="28" y="16" width="2" height="2" fill="#B327A2" />
<rect x="30" y="16" width="2" height="2" fill="#B327A2" />
<rect x="32" y="16" width="2" height="2" fill="#B327A2" />
<rect x="34" y="16" width="2" height="2" fill="#B327A2" />
<rect x="36" y="16" width="2" height="2" fill="#B327A2" />
<rect x="38" y="16" width="2" height="2" fill="#B327A2" />
<rect x="40" y="16" width="2" height="2" fill="#B327A2" />
<rect x="42" y="16" width="2" height="2" fill="#5F229A" />
<rect x="44" y="16" width="2" height="2" fill="#1E125F" />
<rect x="46" y="16" width="2" height="2" fill="#1E125F" />
<rect x="48" y="16" width="2" height="2" fill="#1E125F" />
<rect x="50" y="16" width="2" height="2" fill="#1E125F" />
<rect x="52" y="16" width="2" height="2" fill="#5F229A" />
<rect x="54" y="16" width="2" height="2" fill="#5F229A" />
<rect x="56" y="16" width="2" height="2" fill="#5F229A" />
<rect x="58" y="16" width="2" height="2" fill="#B327A2" />
<rect x="60" y="16" width="2" height="2" fill="#1E125F" />
<rect x="6" y="18" width="2" height="2" fill="#5F229A" />
<rect x="8" y="18" width="2" height="2" fill="#FF1A51" />
<rect x="10" y="18" width="2" height="2" fill="#FF1A51" />
<rect x="12" y="18" width="2" height="2" fill="#FF1A51" />
<rect x="14" y="18" width="2" height="2" fill="#B327A2" />
<rect x="16" y="18" width="2" height="2" fill="#FF1A51" />
<rect x="18" y="18" width="2" height="2" fill="#FF1A51" />
<rect x="20" y="18" width="2" height="2" fill="#B327A2" />
<rect x="22" y="18" width="2" height="2" fill="#B327A2" />
<rect x="24" y="18" width="2" height="2" fill="#B327A2" />
<rect x="26" y="18" width="2" height="2" fill="#B327A2" />
<rect x="28" y="18" width="2" height="2" fill="#B327A2" />
<rect x="30" y="18" width="2" height="2" fill="#B327A2" />
<rect x="32" y="18" width="2" height="2" fill="#B327A2" />
<rect x="34" y="18" width="2" height="2" fill="#B327A2" />
<rect x="36" y="18" width="2" height="2" fill="#B327A2" />
<rect x="38" y="18" width="2" height="2" fill="#B327A2" />
<rect x="40" y="18" width="2" height="2" fill="#B327A2" />
<rect x="42" y="18" width="2" height="2" fill="#5F229A" />
<rect x="44" y="18" width="2" height="2" fill="#1E125F" />
<rect x="46" y="18" width="2" height="2" fill="#1E125F" />
<rect x="48" y="18" width="2" height="2" fill="#1E125F" />
<rect x="50" y="18" width="2" height="2" fill="#5F229A" />
<rect x="52" y="18" width="2" height="2" fill="#5F229A" />
<rect x="54" y="18" width="2" height="2" fill="#5F229A" />
<rect x="56" y="18" width="2" height="2" fill="#5F229A" />
<rect x="58" y="18" width="2" height="2" fill="#B327A2" />
<rect x="60" y="18" width="2" height="2" fill="#1E125F" />
<rect x="6" y="20" width="2" height="2" fill="#1E125F" />
<rect x="8" y="20" width="2" height="2" fill="#FF1A51" />
<rect x="10" y="20" width="2" height="2" fill="#FF1A51" />
<rect x="12" y="20" width="2" height="2" fill="#B327A2" />
<rect x="14" y="20" width="2" height="2" fill="#B327A2" />
<rect x="16" y="20" width="2" height="2" fill="#FF1A51" />
<rect x="18" y="20" width="2" height="2" fill="#FF1A51" />
<rect x="20" y="20" width="2" height="2" fill="#B327A2" />
<rect x="22" y="20" width="2" height="2" fill="#B327A2" />
<rect x="24" y="20" width="2" height="2" fill="#B327A2" />
<rect x="26" y="20" width="2" height="2" fill="#B327A2" />
<rect x="28" y="20" width="2" height="2" fill="#B327A2" />
<rect x="30" y="20" width="2" height="2" fill="#B327A2" />
<rect x="32" y="20" width="2" height="2" fill="#B327A2" />
<rect x="34" y="20" width="2" height="2" fill="#B327A2" />
<rect x="36" y="20" width="2" height="2" fill="#B327A2" />
<rect x="38" y="20" width="2" height="2" fill="#B327A2" />
<rect x="40" y="20" width="2" height="2" fill="#5F229A" />
<rect x="42" y="20" width="2" height="2" fill="#1E125F" />
<rect x="44" y="20" width="2" height="2" fill="#1E125F" />
<rect x="46" y="20" width="2" height="2" fill="#1E125F" />
<rect x="48" y="20" width="2" height="2" fill="#5F229A" />
<rect x="50" y="20" width="2" height="2" fill="#5F229A" />
<rect x="52" y="20" width="2" height="2" fill="#5F229A" />
<rect x="54" y="20" width="2" height="2" fill="#5F229A" />
<rect x="56" y="20" width="2" height="2" fill="#B327A2" />
<rect x="58" y="20" width="2" height="2" fill="#B327A2" />
<rect x="60" y="20" width="2" height="2" fill="#1E125F" />
<rect x="6" y="22" width="2" height="2" fill="#1E125F" />
<rect x="8" y="22" width="2" height="2" fill="#FF1A51" />
<rect x="10" y="22" width="2" height="2" fill="#B327A2" />
<rect x="12" y="22" width="2" height="2" fill="#5F229A" />
<rect x="14" y="22" width="2" height="2" fill="#B327A2" />
<rect x="16" y="22" width="2" height="2" fill="#FF1A51" />
<rect x="18" y="22" width="2" height="2" fill="#FF1A51" />
<rect x="20" y="22" width="2" height="2" fill="#B327A2" />
<rect x="22" y="22" width="2" height="2" fill="#B327A2" />
<rect x="24" y="22" width="2" height="2" fill="#B327A2" />
<rect x="26" y="22" width="2" height="2" fill="#B327A2" />
<rect x="28" y="22" width="2" height="2" fill="#B327A2" />
<rect x="30" y="22" width="2" height="2" fill="#B327A2" />
<rect x="32" y="22" width="2" height="2" fill="#B327A2" />
<rect x="34" y="22" width="2" height="2" fill="#B327A2" />
<rect x="36" y="22" width="2" height="2" fill="#B327A2" />
<rect x="38" y="22" width="2" height="2" fill="#5F229A" />
<rect x="40" y="22" width="2" height="2" fill="#5F229A" />
<rect x="42" y="22" width="2" height="2" fill="#1E125F" />
<rect x="44" y="22" width="2" height="2" fill="#1E125F" />
<rect x="46" y="22" width="2" height="2" fill="#5F229A" />
<rect x="48" y="22" width="2" height="2" fill="#5F229A" />
<rect x="50" y="22" width="2" height="2" fill="#5F229A" />
<rect x="52" y="22" width="2" height="2" fill="#5F229A" />
<rect x="54" y="22" width="2" height="2" fill="#5F229A" />
<rect x="56" y="22" width="2" height="2" fill="#B327A2" />
<rect x="58" y="22" width="2" height="2" fill="#5F229A" />
<rect x="60" y="22" width="2" height="2" fill="#1E125F" />
<rect x="6" y="24" width="2" height="2" fill="#1E125F" />
<rect x="8" y="24" width="2" height="2" fill="#5F229A" />
<rect x="10" y="24" width="2" height="2" fill="#5F229A" />
<rect x="12" y="24" width="2" height="2" fill="#5F229A" />
<rect x="14" y="24" width="2" height="2" fill="#B327A2" />
<rect x="16" y="24" width="2" height="2" fill="#FF1A51" />
<rect x="18" y="24" width="2" height="2" fill="#B327A2" />
<rect x="20" y="24" width="2" height="2" fill="#B327A2" />
<rect x="22" y="24" width="2" height="2" fill="#B327A2" />
<rect x="24" y="24" width="2" height="2" fill="#B327A2" />
<rect x="26" y="24" width="2" height="2" fill="#B327A2" />
<rect x="28" y="24" width="2" height="2" fill="#B327A2" />
<rect x="30" y="24" width="2" height="2" fill="#B327A2" />
<rect x="32" y="24" width="2" height="2" fill="#B327A2" />
<rect x="34" y="24" width="2" height="2" fill="#B327A2" />
<rect x="36" y="24" width="2" height="2" fill="#5F229A" />
<rect x="38" y="24" width="2" height="2" fill="#1E125F" />
<rect x="40" y="24" width="2" height="2" fill="#5F229A" />
<rect x="42" y="24" width="2" height="2" fill="#5F229A" />
<rect x="44" y="24" width="2" height="2" fill="#5F229A" />
<rect x="46" y="24" width="2" height="2" fill="#5F229A" />
<rect x="48" y="24" width="2" height="2" fill="#5F229A" />
<rect x="50" y="24" width="2" height="2" fill="#5F229A" />
<rect x="52" y="24" width="2" height="2" fill="#5F229A" />
<rect x="54" y="24" width="2" height="2" fill="#B327A2" />
<rect x="56" y="24" width="2" height="2" fill="#FF1A51" />
<rect x="58" y="24" width="2" height="2" fill="#1E125F" />
<rect x="4" y="26" width="2" height="2" fill="#1E125F" />
<rect x="6" y="26" width="2" height="2" fill="#5F229A" />
<rect x="8" y="26" width="2" height="2" fill="#B327A2" />
<rect x="10" y="26" width="2" height="2" fill="#FFB3B7" />
<rect x="12" y="26" width="2" height="2" fill="#FFB3B7" />
<rect x="14" y="26" width="2" height="2" fill="#B327A2" />
<rect x="16" y="26" width="2" height="2" fill="#FF1A51" />
<rect x="18" y="26" width="2" height="2" fill="#B327A2" />
<rect x="20" y="26" width="2" height="2" fill="#B327A2" />
<rect x="22" y="26" width="2" height="2" fill="#B327A2" />
<rect x="24" y="26" width="2" height="2" fill="#B327A2" />
<rect x="26" y="26" width="2" height="2" fill="#B327A2" />
<rect x="28" y="26" width="2" height="2" fill="#B327A2" />
<rect x="30" y="26" width="2" height="2" fill="#B327A2" />
<rect x="32" y="26" width="2" height="2" fill="#B327A2" />
<rect x="34" y="26" width="2" height="2" fill="#1E125F" />
<rect x="36" y="26" width="2" height="2" fill="#1E125F" />
<rect x="38" y="26" width="2" height="2" fill="#5F229A" />
<rect x="40" y="26" width="2" height="2" fill="#5F229A" />
<rect x="42" y="26" width="2" height="2" fill="#5F229A" />
<rect x="44" y="26" width="2" height="2" fill="#5F229A" />
<rect x="46" y="26" width="2" height="2" fill="#5F229A" />
<rect x="48" y="26" width="2" height="2" fill="#5F229A" />
<rect x="50" y="26" width="2" height="2" fill="#5F229A" />
<rect x="52" y="26" width="2" height="2" fill="#B327A2" />
<rect x="54" y="26" width="2" height="2" fill="#FF1A51" />
<rect x="56" y="26" width="2" height="2" fill="#1E125F" />
<rect x="58" y="26" width="2" height="2" fill="#1E125F" />
<rect x="4" y="28" width="2" height="2" fill="#1E125F" />
<rect x="6" y="28" width="2" height="2" fill="#B327A2" />
<rect x="8" y="28" width="2" height="2" fill="#FFB3B7" />
<rect x="10" y="28" width="2" height="2" fill="#FF1A51" />
<rect x="12" y="28" width="2" height="2" fill="#B327A2" />
<rect x="14" y="28" width="2" height="2" fill="#B327A2" />
<rect x="16" y="28" width="2" height="2" fill="#B327A2" />
<rect x="18" y="28" width="2" height="2" fill="#B327A2" />
<rect x="20" y="28" width="2" height="2" fill="#B327A2" />
<rect x="22" y="28" width="2" height="2" fill="#B327A2" />
<rect x="24" y="28" width="2" height="2" fill="#B327A2" />
<rect x="26" y="28" width="2" height="2" fill="#B327A2" />
<rect x="28" y="28" width="2" height="2" fill="#5F229A" />
<rect x="30" y="28" width="2" height="2" fill="#1E125F" />
<rect x="32" y="28" width="2" height="2" fill="#1E125F" />
<rect x="34" y="28" width="2" height="2" fill="#1E125F" />
<rect x="36" y="28" width="2" height="2" fill="#5F229A" />
<rect x="38" y="28" width="2" height="2" fill="#5F229A" />
<rect x="40" y="28" width="2" height="2" fill="#5F229A" />
<rect x="42" y="28" width="2" height="2" fill="#5F229A" />
<rect x="44" y="28" width="2" height="2" fill="#5F229A" />
<rect x="46" y="28" width="2" height="2" fill="#5F229A" />
<rect x="48" y="28" width="2" height="2" fill="#B327A2" />
<rect x="50" y="28" width="2" height="2" fill="#B327A2" />
<rect x="52" y="28" width="2" height="2" fill="#FF1A51" />
<rect x="54" y="28" width="2" height="2" fill="#5F229A" />
<rect x="56" y="28" width="2" height="2" fill="#1E125F" />
<rect x="4" y="30" width="2" height="2" fill="#1E125F" />
<rect x="6" y="30" width="2" height="2" fill="#5F229A" />
<rect x="8" y="30" width="2" height="2" fill="#FF1A51" />
<rect x="10" y="30" width="2" height="2" fill="#FF1A51" />
<rect x="12" y="30" width="2" height="2" fill="#FF1A51" />
<rect x="14" y="30" width="2" height="2" fill="#B327A2" />
<rect x="16" y="30" width="2" height="2" fill="#B327A2" />
<rect x="18" y="30" width="2" height="2" fill="#B327A2" />
<rect x="20" y="30" width="2" height="2" fill="#B327A2" />
<rect x="22" y="30" width="2" height="2" fill="#B327A2" />
<rect x="24" y="30" width="2" height="2" fill="#5F229A" />
<rect x="26" y="30" width="2" height="2" fill="#1E125F" />
<rect x="28" y="30" width="2" height="2" fill="#1E125F" />
<rect x="30" y="30" width="2" height="2" fill="#5F229A" />
<rect x="32" y="30" width="2" height="2" fill="#5F229A" />
<rect x="34" y="30" width="2" height="2" fill="#5F229A" />
<rect x="36" y="30" width="2" height="2" fill="#5F229A" />
<rect x="38" y="30" width="2" height="2" fill="#5F229A" />
<rect x="40" y="30" width="2" height="2" fill="#5F229A" />
<rect x="42" y="30" width="2" height="2" fill="#5F229A" />
<rect x="44" y="30" width="2" height="2" fill="#B327A2" />
<rect x="46" y="30" width="2" height="2" fill="#B327A2" />
<rect x="48" y="30" width="2" height="2" fill="#B327A2" />
<rect x="50" y="30" width="2" height="2" fill="#5F229A" />
<rect x="52" y="30" width="2" height="2" fill="#1E125F" />
<rect x="54" y="30" width="2" height="2" fill="#1E125F" />
<rect x="4" y="32" width="2" height="2" fill="#1E125F" />
<rect x="6" y="32" width="2" height="2" fill="#1E125F" />
<rect x="8" y="32" width="2" height="2" fill="#5F229A" />
<rect x="10" y="32" width="2" height="2" fill="#FF1A51" />
<rect x="12" y="32" width="2" height="2" fill="#FF1A51" />
<rect x="14" y="32" width="2" height="2" fill="#B327A2" />
<rect x="16" y="32" width="2" height="2" fill="#B327A2" />
<rect x="18" y="32" width="2" height="2" fill="#B327A2" />
<rect x="20" y="32" width="2" height="2" fill="#5F229A" />
<rect x="22" y="32" width="2" height="2" fill="#5F229A" />
<rect x="24" y="32" width="2" height="2" fill="#5F229A" />
<rect x="26" y="32" width="2" height="2" fill="#5F229A" />
<rect x="28" y="32" width="2" height="2" fill="#5F229A" />
<rect x="30" y="32" width="2" height="2" fill="#5F229A" />
<rect x="32" y="32" width="2" height="2" fill="#B327A2" />
<rect x="34" y="32" width="2" height="2" fill="#B327A2" />
<rect x="36" y="32" width="2" height="2" fill="#B327A2" />
<rect x="38" y="32" width="2" height="2" fill="#B327A2" />
<rect x="40" y="32" width="2" height="2" fill="#B327A2" />
<rect x="42" y="32" width="2" height="2" fill="#B327A2" />
<rect x="44" y="32" width="2" height="2" fill="#5F229A" />
<rect x="46" y="32" width="2" height="2" fill="#1E125F" />
<rect x="48" y="32" width="2" height="2" fill="#1E125F" />
<rect x="50" y="32" width="2" height="2" fill="#1E125F" />
<rect x="6" y="34" width="2" height="2" fill="#1E125F" />
<rect x="8" y="34" width="2" height="2" fill="#1E125F" />
<rect x="10" y="34" width="2" height="2" fill="#FF1A51" />
<rect x="12" y="34" width="2" height="2" fill="#FF1A51" />
<rect x="14" y="34" width="2" height="2" fill="#FF1A51" />
<rect x="16" y="34" width="2" height="2" fill="#B327A2" />
<rect x="18" y="34" width="2" height="2" fill="#FFB3B7" />
<rect x="20" y="34" width="2" height="2" fill="#FFB3B7" />
<rect x="22" y="34" width="2" height="2" fill="#FFB3B7" />
<rect x="24" y="34" width="2" height="2" fill="#FF1A51" />
<rect x="26" y="34" width="2" height="2" fill="#FF1A51" />
<rect x="28" y="34" width="2" height="2" fill="#FF1A51" />
<rect x="30" y="34" width="2" height="2" fill="#B327A2" />
<rect x="32" y="34" width="2" height="2" fill="#B327A2" />
<rect x="34" y="34" width="2" height="2" fill="#5F229A" />
<rect x="36" y="34" width="2" height="2" fill="#5F229A" />
<rect x="38" y="34" width="2" height="2" fill="#1E125F" />
<rect x="40" y="34" width="2" height="2" fill="#1E125F" />
<rect x="42" y="34" width="2" height="2" fill="#1E125F" />
<rect x="44" y="34" width="2" height="2" fill="#1E125F" />
<rect x="46" y="34" width="2" height="2" fill="#1E125F" />
<rect x="6" y="36" width="2" height="2" fill="#1E125F" />
<rect x="8" y="36" width="2" height="2" fill="#1E125F" />
<rect x="10" y="36" width="2" height="2" fill="#5F229A" />
<rect x="12" y="36" width="2" height="2" fill="#FFB3B7" />
<rect x="14" y="36" width="2" height="2" fill="#FFB3B7" />
<rect x="16" y="36" width="2" height="2" fill="#FFB3B7" />
<rect x="18" y="36" width="2" height="2" fill="#FFB3B7" />
<rect x="20" y="36" width="2" height="2" fill="#B327A2" />
<rect x="22" y="36" width="2" height="2" fill="#B327A2" />
<rect x="24" y="36" width="2" height="2" fill="#5F229A" />
<rect x="26" y="36" width="2" height="2" fill="#5F229A" />
<rect x="28" y="36" width="2" height="2" fill="#5F229A" />
<rect x="30" y="36" width="2" height="2" fill="#1E125F" />
<rect x="32" y="36" width="2" height="2" fill="#1E125F" />
<rect x="34" y="36" width="2" height="2" fill="#1E125F" />
<rect x="36" y="36" width="2" height="2" fill="#1E125F" />
<rect x="38" y="36" width="2" height="2" fill="#1E125F" />
<rect x="4" y="38" width="2" height="2" fill="#1E125F" />
<rect x="6" y="38" width="2" height="2" fill="#5F229A" />
<rect x="8" y="38" width="2" height="2" fill="#FFB3B7" />
<rect x="10" y="38" width="2" height="2" fill="#FFB3B7" />
<rect x="12" y="38" width="2" height="2" fill="#FFB3B7" />
<rect x="14" y="38" width="2" height="2" fill="#5F229A" />
<rect x="16" y="38" width="2" height="2" fill="#1E125F" />
<rect x="18" y="38" width="2" height="2" fill="#1E125F" />
<rect x="20" y="38" width="2" height="2" fill="#1E125F" />
<rect x="22" y="38" width="2" height="2" fill="#1E125F" />
<rect x="24" y="38" width="2" height="2" fill="#1E125F" />
<rect x="26" y="38" width="2" height="2" fill="#1E125F" />
<rect x="28" y="38" width="2" height="2" fill="#1E125F" />
<rect x="30" y="38" width="2" height="2" fill="#1E125F" />
<rect x="32" y="38" width="2" height="2" fill="#1E125F" />
<rect x="4" y="40" width="2" height="2" fill="#1E125F" />
<rect x="6" y="40" width="2" height="2" fill="#FFB3B7" />
<rect x="8" y="40" width="2" height="2" fill="#FFB3B7" />
<rect x="10" y="40" width="2" height="2" fill="#5F229A" />
<rect x="12" y="40" width="2" height="2" fill="#1E125F" />
<rect x="14" y="40" width="2" height="2" fill="#1E125F" />
<rect x="16" y="40" width="2" height="2" fill="#1E125F" />
<rect x="18" y="40" width="2" height="2" fill="#1E125F" />
<rect x="20" y="40" width="2" height="2" fill="#1E125F" />
<rect x="22" y="40" width="2" height="2" fill="#1E125F" />
<rect x="24" y="40" width="2" height="2" fill="#1E125F" />
<rect x="26" y="40" width="2" height="2" fill="#1E125F" />
<rect x="28" y="40" width="2" height="2" fill="#1E125F" />
<rect x="2" y="42" width="2" height="2" fill="#1E125F" />
<rect x="4" y="42" width="2" height="2" fill="#FF1A51" />
<rect x="6" y="42" width="2" height="2" fill="#FFB3B7" />
<rect x="8" y="42" width="2" height="2" fill="#1E125F" />
<rect x="10" y="42" width="2" height="2" fill="#1E125F" />
<rect x="12" y="42" width="2" height="2" fill="#1E125F" />
<rect x="14" y="42" width="2" height="2" fill="#1E125F" />
<rect x="16" y="42" width="2" height="2" fill="#1E125F" />
<rect x="18" y="42" width="2" height="2" fill="#1E125F" />
<rect x="20" y="42" width="2" height="2" fill="#1E125F" />
<rect x="22" y="42" width="2" height="2" fill="#1E125F" />
<rect x="24" y="42" width="2" height="2" fill="#1E125F" />
<rect x="26" y="42" width="2" height="2" fill="#1E125F" />
<rect x="0" y="44" width="2" height="2" fill="#1E125F" />
<rect x="2" y="44" width="2" height="2" fill="#FF1A51" />
<rect x="4" y="44" width="2" height="2" fill="#FF1A51" />
<rect x="6" y="44" width="2" height="2" fill="#1E125F" />
<rect x="8" y="44" width="2" height="2" fill="#1E125F" />
<rect x="10" y="44" width="2" height="2" fill="#1E125F" />
<rect x="12" y="44" width="2" height="2" fill="#1E125F" />
<rect x="14" y="44" width="2" height="2" fill="#1E125F" />
<rect x="16" y="44" width="2" height="2" fill="#1E125F" />
<rect x="18" y="44" width="2" height="2" fill="#1E125F" />
<rect x="20" y="44" width="2" height="2" fill="#1E125F" />
<rect x="22" y="44" width="2" height="2" fill="#1E125F" />
<rect x="24" y="44" width="2" height="2" fill="#1E125F" />
<rect x="0" y="46" width="2" height="2" fill="#1E125F" />
<rect x="2" y="46" width="2" height="2" fill="#B327A2" />
<rect x="4" y="46" width="2" height="2" fill="#B327A2" />
<rect x="6" y="46" width="2" height="2" fill="#5F229A" />
<rect x="8" y="46" width="2" height="2" fill="#1E125F" />
<rect x="10" y="46" width="2" height="2" fill="#1E125F" />
<rect x="12" y="46" width="2" height="2" fill="#1E125F" />
<rect x="14" y="46" width="2" height="2" fill="#1E125F" />
<rect x="16" y="46" width="2" height="2" fill="#1E125F" />
<rect x="18" y="46" width="2" height="2" fill="#1E125F" />
<rect x="20" y="46" width="2" height="2" fill="#1E125F" />
<rect x="22" y="46" width="2" height="2" fill="#1E125F" />
<rect x="2" y="48" width="2" height="2" fill="#1E125F" />
<rect x="4" y="48" width="2" height="2" fill="#1E125F" />
<rect x="6" y="48" width="2" height="2" fill="#A349A4" />
<rect x="8" y="48" width="2" height="2" fill="#A349A4" />
<rect x="10" y="48" width="2" height="2" fill="#A349A4" />
<rect x="12" y="48" width="2" height="2" fill="#5F229A" />
<rect x="14" y="48" width="2" height="2" fill="#1E125F" />
<rect x="16" y="48" width="2" height="2" fill="#1E125F" />
<rect x="18" y="48" width="2" height="2" fill="#1E125F" />
<rect x="4" y="50" width="2" height="2" fill="#1E125F" />
<rect x="6" y="50" width="2" height="2" fill="#1E125F" />
<rect x="8" y="50" width="2" height="2" fill="#1E125F" />
<rect x="10" y="50" width="2" height="2" fill="#1E125F" />
<rect x="12" y="50" width="2" height="2" fill="#1E125F" />
<rect x="14" y="50" width="2" height="2" fill="#1E125F" />
</svg>